<?xml version="1.0" ?><svg id="Layer_1" style="enable-background:new 0 0 64 64;" version="1.1" viewBox="0 0 64 64" xml:space="preserve" xmlns="http://www.w3.org/2000/svg" xmlns:xlink="http://www.w3.org/1999/xlink"><style type="text/css">
	.st0{fill:none;stroke:#000000;stroke-width:2;stroke-linejoin:round;stroke-miterlimit:10;}
</style><path d="M32,4C16.561,4,4,16.561,4,32s12.561,28,28,28s28-12.561,28-28S47.439,4,32,4z M32,58C17.664,58,6,46.336,6,32  S17.664,6,32,6s26,11.664,26,26S46.336,58,32,58z"/><rect height="2" width="22" x="21" y="41"/><polygon points="25.293,29.207 26.707,27.793 23.914,25 26.707,22.207 25.293,20.793 22.5,23.586 19.707,20.793 18.293,22.207   21.086,25 18.293,27.793 19.707,29.207 22.5,26.414 "/><polygon points="44.293,20.793 41.5,23.586 38.707,20.793 37.293,22.207 40.086,25 37.293,27.793 38.707,29.207 41.5,26.414   44.293,29.207 45.707,27.793 42.914,25 45.707,22.207 "/></svg>